<?xml version="1.0" standalone="no"?>
<!DOCTYPE svg PUBLIC "-//W3C//DTD SVG 20010904//EN"
 "http://www.w3.org/TR/2001/REC-SVG-20010904/DTD/svg10.dtd">
<svg version="1.0" xmlns="http://www.w3.org/2000/svg"
 width="90.000000pt" height="90.000000pt" viewBox="0 0 90.000000 90.000000"
 preserveAspectRatio="xMidYMid meet">
<metadata>
Created by potrace 1.14, written by Peter Selinger 2001-2017
</metadata>
<g transform="translate(0.000000,90.000000) scale(0.100000,-0.100000)"
fill="#000000" stroke="none">
<path d="M245 602 l-60 -37 -3 -148 -3 -147 51 0 c27 0 53 0 58 0 14 0 7 25
-8 26 -8 1 -27 2 -42 2 l-28 2 0 123 0 124 49 26 c42 24 52 25 80 16 23 -8 36
-8 43 -1 7 7 -2 17 -30 31 -23 12 -43 21 -44 20 -2 0 -30 -17 -63 -37z"/>
<path d="M392 587 l-82 -51 2 -180 3 -181 185 0 185 0 3 180 2 180 -69 40
c-38 22 -67 43 -65 47 3 4 -1 5 -9 2 -8 -3 -18 -1 -22 5 -12 21 -50 8 -133
-42z m241 -60 l28 -19 -3 -151 -3 -152 -157 -3 -158 -3 0 160 c0 152 1 161 21
171 15 9 24 8 37 -2 15 -12 16 -11 3 4 -11 15 -11 19 5 25 11 4 34 17 53 30
l34 23 56 -32 c31 -17 68 -40 84 -51z"/>
</g>
</svg>
